<svg class="forme1" xmlns="http://www.w3.org/2000/svg" width="699" height="845" viewBox="0 0 699 845" fill="none">
                
                    <defs>
                        <clipPath id="shape">
                            <path d="M1.03593 224.49C2.63593 48.89 133.5 11.0001 218 4.50007C355 -6.0384 545.746 5.32166 633.536 59.49C770.5 144 659 335.5 589.5 374.5C520 413.5 648.536 650.49 431.536 804.49C214.536 958.49 81.1094 620.06 64.5001 573C46.5001 522 -0.964072 443.99 1.03593 224.49Z"/>
                        </clipPath>
                        <filter id="inner-shadow" width="300%" height="300%">
                            <feFlood flood-color="black" flood-opacity="80%"/>
                            <feComposite operator="out" in2="SourceGraphic" />
                            <feMorphology operator="dilate" radius="15"/>
                            <feGaussianBlur stdDeviation="5" />
                            <feComposite operator="atop" in2="SourceGraphic"/>
                        </filter>


                    </defs>
                <g id="formegraph">
                <path d="M1.03593 224.49C2.63593 48.89 133.5 11.0001 218 4.50007C355 -6.0384 545.746 5.32166 633.536 59.49C770.5 144 659 335.5 589.5 374.5C520 413.5 648.536 650.49 431.536 804.49C214.536 958.49 81.1094 620.06 64.5001 573C46.5001 522 -0.964072 443.99 1.03593 224.49Z" fill="#EF4650" stroke="#EF4650" stroke-width="5" filter="url(#inner-shadow)" />
                </g>

                <image xlink:href="./Photo accueil/cerisier-japonais.png" clip-path="url(#shape)" width="50%" height="50%" x="50" y="-50" stroke="#22831" stroke-width="5"/>
                <image xlink:href="./Photo accueil/cerisier-japonais.png" clip-path="url(#shape)" width="50%" height="50%" x="50" y="-50"/>

              </svg>
